<?xml version="1.0" standalone="no"?>
<!DOCTYPE svg PUBLIC "-//W3C//DTD SVG 20010904//EN"
 "http://www.w3.org/TR/2001/REC-SVG-20010904/DTD/svg10.dtd">
<svg version="1.0" xmlns="http://www.w3.org/2000/svg"
 width="803.000000pt" height="757.000000pt" viewBox="0 0 803.000000 757.000000"
 preserveAspectRatio="xMidYMid meet">

<g transform="translate(0.000000,757.000000) scale(0.100000,-0.100000)"
fill="#000000" stroke="none">
<path d="M5875 5408 c-20 -17 -44 -47 -55 -67 l-18 -36 -7 30 c-4 17 -10 43
-14 60 -9 38 -28 42 -71 13 -48 -33 -71 -70 -77 -121 -9 -74 2 -97 83 -173
l76 -71 -95 -2 c-53 0 -126 -8 -164 -17 -37 -8 -111 -19 -163 -23 -98 -7 -127
-17 -170 -56 -15 -14 -44 -25 -75 -29 -127 -16 -248 -109 -301 -231 l-28 -65
-1366 0 c-1057 -1 -1369 -3 -1381 -13 -39 -30 -39 -27 -39 -1007 0 -1047 -3
-997 61 -1019 22 -7 197 -11 550 -11 l519 0 0 -275 0 -275 -957 -2 -958 -3
140 -143 140 -142 1314 0 1315 0 67 -41 c78 -47 74 -34 84 -239 3 -63 10 -131
15 -150 10 -40 37 -124 51 -158 6 -16 49 -43 151 -92 235 -115 453 -184 702
-221 167 -25 466 -30 616 -10 258 35 513 109 732 213 143 68 138 63 177 215
49 193 67 373 85 903 14 378 14 396 -4 414 -26 27 -119 45 -260 51 -152 6
-149 3 -160 147 -9 119 -36 194 -107 301 -57 85 -117 138 -296 257 -161 108
-154 96 -156 251 -1 112 -13 155 -44 163 -43 10 -203 26 -272 26 -102 0 -69
21 52 32 290 26 545 213 639 470 9 24 19 83 23 132 l6 89 61 17 c79 21 140 57
191 113 189 205 130 524 -121 647 -119 59 -279 50 -391 -21 -25 -16 -45 -27
-45 -25 0 2 14 36 30 76 32 78 37 119 18 138 -22 22 -66 13 -103 -20z m93 -10
c4 -21 -50 -159 -90 -228 l-32 -55 -12 50 c-16 59 -5 149 22 191 21 31 73 65
94 61 8 -1 16 -10 18 -19z m-176 -155 c24 -108 33 -162 26 -170 -8 -9 -26 2
-75 45 -91 80 -110 126 -83 198 12 30 66 84 84 84 8 0 26 -61 48 -157z m-778
-701 c4 -7 23 -12 43 -12 48 0 115 -33 152 -75 97 -111 104 -310 26 -715 -43
-224 -50 -275 -38 -267 6 4 14 26 18 49 10 59 19 29 10 -37 -13 -104 -86 -170
-197 -178 l-68 -5 0 607 c0 551 1 610 17 655 17 47 18 48 24 19 3 -16 9 -35
13 -41z m-1636 -648 c13 -8 54 -78 92 -154 125 -249 293 -521 431 -697 27 -35
45 -63 40 -63 -14 0 -145 178 -242 330 -99 156 -170 281 -242 430 -59 124 -80
150 -118 150 -31 0 -142 -62 -235 -131 -105 -78 -243 -219 -331 -338 -2 -2 -5
-2 -8 1 -10 9 121 162 206 242 110 102 324 244 369 246 9 0 26 -7 38 -16z m-7
-84 c51 -54 261 -461 246 -477 -9 -9 -65 70 -117 165 -63 116 -104 170 -133
178 -12 3 -43 -4 -69 -16 -44 -19 -185 -39 -282 -40 -34 0 -37 2 -25 16 20 25
219 167 268 192 52 26 75 22 112 -18z m-453 -14 c26 -14 102 -86 90 -86 -3 0
-22 15 -41 34 -50 47 -96 61 -144 46 -49 -16 -143 -73 -207 -125 -65 -52 -87
-65 -61 -36 28 32 135 108 209 147 66 36 112 42 154 20z m11 -57 c24 -17 41
-32 39 -34 -3 -4 -179 36 -188 43 -11 8 29 22 66 22 30 0 52 -8 83 -31z m931
-39 c27 -27 25 -56 -5 -86 -18 -18 -31 -23 -48 -19 -28 9 -57 42 -57 66 0 27
35 59 65 59 14 0 34 -9 45 -20z m4 -211 c24 -19 139 -158 315 -382 29 -37 51
-70 49 -73 -3 -2 -27 24 -54 58 -181 234 -308 387 -329 396 -19 9 -39 6 -106
-19 -45 -16 -84 -27 -87 -25 -3 3 1 8 9 11 73 27 156 54 165 55 6 0 23 -10 38
-21z m136 -207 c78 -95 140 -176 137 -178 -11 -11 -206 194 -256 268 -51 78
-63 106 -37 91 7 -4 78 -86 156 -181z m-430 -756 c0 -37 -5 -48 -27 -66 -54
-43 -123 -3 -123 71 l0 39 75 0 75 0 0 -44z m1188 -82 l-3 -126 -110 -38 c-60
-21 -137 -50 -170 -65 -103 -47 -115 -47 -213 -8 l-87 35 -157 -7 -158 -7 0
171 0 171 450 0 451 0 -3 -126z m-1114 -163 c17 -11 70 -31 118 -46 85 -27 86
-27 77 -53 -5 -15 -22 -71 -38 -124 l-29 -98 72 -45 71 -45 -632 0 c-348 0
-633 4 -633 8 0 5 5 34 11 65 l12 57 317 0 c313 0 318 0 313 -20 -5 -20 12
-50 28 -50 4 0 27 17 51 38 l44 37 -23 40 c-50 89 -7 212 87 248 36 13 123 7
154 -12z"/>
<path d="M3678 2003 c6 -2 18 -2 25 0 6 3 1 5 -13 5 -14 0 -19 -2 -12 -5z"/>
</g>
</svg>
